<?xml version="1.0" encoding="UTF-8" standalone="no"?>
<svg
   width="100%"
   height="100%"
   viewBox="0 0 3453 3435"
   version="1.1"
   xml:space="preserve"
   style="fill-rule:evenodd;clip-rule:evenodd;stroke-linejoin:round;stroke-miterlimit:2;"
   id="svg2"
   sodipodi:docname="Logo branco no preto.svg"
   inkscape:version="1.4.3 (0d15f75, 2025-12-25)"
   xmlns:inkscape="http://www.inkscape.org/namespaces/inkscape"
   xmlns:sodipodi="http://sodipodi.sourceforge.net/DTD/sodipodi-0.dtd"
   xmlns="http://www.w3.org/2000/svg"
   xmlns:svg="http://www.w3.org/2000/svg"
   xmlns:serif="http://www.serif.com/"><defs
     id="defs2" /><sodipodi:namedview
     id="namedview2"
     pagecolor="#ffffff"
     bordercolor="#000000"
     borderopacity="0.25"
     inkscape:showpageshadow="2"
     inkscape:pageopacity="0.0"
     inkscape:pagecheckerboard="0"
     inkscape:deskcolor="#d1d1d1"
     inkscape:zoom="0.23726346"
     inkscape:cx="1728.0368"
     inkscape:cy="1717.5"
     inkscape:window-width="1920"
     inkscape:window-height="1017"
     inkscape:window-x="-8"
     inkscape:window-y="-8"
     inkscape:window-maximized="1"
     inkscape:current-layer="svg2" /><g
     id="Design-sem-nome--5-.png"
     serif:id="Design sem nome (5).png"><path
       d="M1684.835,3260.647c-81.33,-1.302 -80.559,-7.726 -145.859,-9.244c-18.248,-0.424 -113.586,161.654 -133.649,181.752c-14.907,14.934 -367.337,-97.309 -410.699,-130.218c-5.305,-4.026 2.981,-212.182 3.886,-219.193c0.285,-2.207 2.508,-5.501 -43.737,-31.828c-60.674,-34.541 -85.203,-54.264 -91.802,-58.321c-40.046,-24.618 -151.084,-116.101 -170.252,-134.575c-18.295,-17.632 -21.251,-8.372 -45.338,-0.303c-162.246,54.352 -160.894,57.829 -175.065,62.322c-15.899,5.041 -219.841,-262.147 -254.632,-345.629c-1.605,-3.852 -4.487,-10.766 26.808,-44.745c4.474,-4.857 32.369,-35.146 51.083,-64.842c27.385,-43.456 59.038,-61.555 49.854,-81.376c-12.582,-27.156 -91.631,-197.774 -116.922,-355.373c-3.969,-24.736 -213.768,-60.521 -215.438,-78.635c-19.961,-216.527 -14.713,-295.338 0.027,-467.082c1.566,-18.249 211.724,-53.661 215.802,-79.206c18.85,-118.062 86.098,-284.917 95.77,-308.915c19.651,-48.757 31.184,-52.797 9.277,-77.618c-45.306,-51.332 -37.824,-56.701 -83.348,-108.32c-28.709,-32.553 -42.841,-34.962 -21.602,-72.434c93.745,-165.389 176.659,-250.977 236.321,-322.702c6.744,-8.107 206.907,78.216 219.003,68.763c42.775,-33.429 39.605,-36.857 43.455,-39.555c32.602,-22.843 106.905,-93.92 256.228,-178.066c22.268,-12.548 12.383,-18.38 12.166,-44.228c-1.494,-178.405 -11.445,-184.164 4.47,-193.355c76.32,-44.075 245.54,-92.209 267.471,-98.447c130.227,-37.043 135.421,-30.428 142.543,-21.36c29.864,38.029 24.242,41.619 54.134,79.201c24.68,31.029 60.855,99.696 74.426,97.642c173.703,-26.279 382.343,1.9 385.52,-2.556c7.233,-10.145 66.348,-93.052 87.636,-128.746c2.589,-4.342 25.492,-42.744 36.165,-51.817c19.391,-16.483 365.139,96.049 409.935,129.154c11.569,8.55 -9.952,223.051 2.58,230.031c170.901,95.187 217.413,144.358 307.767,221.93c11.658,10.008 178.255,-61.505 212.175,-68.568c22.959,-4.78 225.11,270.566 256.502,344.896c1.933,4.576 2.319,5.491 -33.376,52.357c-60.918,79.983 -62.905,78.307 -67.556,85.695c-20.963,33.304 -36.02,33.706 -25.048,56.461c80.439,166.828 114.605,352.821 116.977,358.131c2.703,6.053 122.9,39.517 206.317,63.527c25.233,7.263 21.163,464.527 2.747,481.825c-0.08,0.076 -132.812,39.802 -144.362,43.259c-50.269,15.045 -61.29,6.839 -69.661,41.768c-6.469,26.989 -51.932,216.67 -107.944,329.698c-14.407,29.072 -3.584,29.395 5.204,42.22c32.971,48.119 38.212,43.718 70.829,91.666c39.897,58.65 43.493,56.096 45.812,61.796c7.799,19.163 -157.624,258.209 -245.589,348.081c-12.725,13.001 -137.663,-43.772 -210.77,-66.521c-17.378,-5.408 -111.397,112.085 -311.897,219.777c-25.714,13.812 -4.066,110.336 -7.773,227.481c-0.331,10.451 -36.377,22.462 -39.544,23.679c-177.888,68.39 -175.351,76.407 -361.888,114.638c-17.875,3.664 -56.378,-71.33 -75.999,-96.24c-51.53,-65.419 -39.922,-91.639 -95.211,-85.885c-74.597,7.763 -74.37,7.693 -203.932,8.15l1447.901,-1614.618c-4.941,-41.985 -2.638,-41.653 -7.165,-83.187c-26.593,-243.975 -77.697,-384.83 -192.359,-586.756c-123.219,-216.996 -346.075,-396.43 -391.077,-424.148c-23.527,-14.491 -83.065,-57.103 -131.654,-82.149c-68.992,-35.564 -69.248,-33.938 -138.94,-67.822c-36.276,-17.638 -340.238,-144.445 -694.922,-100.764c-313.492,38.608 -530.096,130.06 -799.316,358.297c-131.897,111.818 -251.048,306.045 -269.034,335.362c-206.19,336.106 -312.217,956.771 33.349,1498.235c82.295,128.948 135.084,175.798 137.54,179.268c43.417,61.351 223.947,219.422 369.182,296.762c223.827,119.192 392.647,143.286 449.209,154.367c145.878,28.578 379.131,14.088 412.638,7.04c20.919,-4.4 264.943,-33.407 490.488,-161.019c49.188,-27.83 340.594,-192.705 515.729,-482.778c215.239,-356.495 219.767,-600.774 216.332,-840.709l-1447.901,1614.618Z"
       style="fill:#ffc64b;fill-opacity:0.95;"
       id="path1" /><path
       d="M782.741,2079.369c-14.527,-115.724 17.421,-110.015 38.732,-130.113c97.275,-91.738 54.312,-170.574 41.187,-236.31c-4.06,-20.336 -31.08,-155.672 46.273,-255.059c15.765,-20.255 -29.895,-39.981 -122.64,-154.731c-59.316,-73.389 -27.396,-180.641 -13.659,-202.821c25.384,-40.987 -29.888,14.998 -86.892,47.478c-110.644,63.042 -88.699,-31.304 -87.098,-59.892c5.988,-106.92 12.712,26.367 12.84,28.893c2.683,53.183 48.458,11.067 55.654,6.7c33.717,-20.462 129.04,-119.954 151.004,-114.868c82.175,19.029 -41.738,143.328 -0.908,246.217c19.152,48.261 130.419,109.345 154.642,117.336c29.132,9.61 18.92,-42.36 137.926,-44c196.167,-2.704 354.579,-39.095 396.42,-60.185c130.527,-65.796 141.241,-48.524 194.431,-73.787c223.845,-106.317 318.214,-46.074 442.061,-1.243c236.336,85.551 287.827,185.292 338.898,239.764c59.156,63.095 58.75,83.344 77.369,66.512c46.606,-42.135 91.364,-45.352 151.111,-55.443c96.236,-16.254 146.141,-29.85 147.838,-26.086c19.098,42.352 -181.302,95.206 -192.253,116.519c-5.937,11.554 78.98,17.671 85.993,18.176c43.817,3.156 85.453,-17.775 87.656,-6.482c6.204,31.795 -95.931,47.851 -154.313,59.64c-5.868,1.185 -48.387,4.831 -36.994,19.132c21.299,26.734 34.276,100.423 7.946,106.16c-54.681,11.913 -72.387,55.017 -124.496,119.985c-61.96,77.25 -31.405,167.436 -154.607,135.784c-11.509,-2.957 -13.184,5.708 -20.971,6.461c-46.33,4.48 -39.364,-34.016 -46.911,-42.115c-40.203,-43.141 -30.937,-48.551 -34.686,-88.464c-2.253,-23.984 -44.278,-14.329 -47.206,-11.597c-4.975,4.642 -9.228,10.038 -14.35,14.517c-9.246,8.087 -80.959,70.808 -144.621,51.601c-34.85,-10.514 28.913,85.366 34.739,107.913c7.401,28.641 -22.403,97.411 -10.762,150.623c10.587,48.399 -10.239,45.273 -98.399,133.517c-5.721,5.726 -22.693,33.834 -26.599,-4.565c-4.778,-46.972 -13.484,-52.379 19.928,-85.507c2.402,-2.381 17.122,-16.977 23.754,-34.974c25.285,-68.616 15.505,-93.438 12.521,-101.015c-0.393,-0.998 -50.438,-59.47 -64.627,-68.53c-30.607,-19.543 -37.537,-55.741 -70.032,-35.477c-6.441,4.017 1.344,103.781 2.046,112.777c1.824,23.375 9.025,22.703 4.278,46.158c-2.256,11.146 -13.717,67.765 20.864,140.607c15.738,33.15 9.426,37.177 36.183,62.775c35.472,33.936 57.984,44.359 25.411,60.795c-35.012,17.667 -105.241,-18.305 -105.298,-18.464c-1.845,-5.225 -20.704,-58.651 -28.529,-63.117c-12.26,-6.998 -12.542,-9.415 -18.84,-103.59c-1.412,-21.108 -3.273,-20.312 -84.721,-250.504c-12.12,-34.255 -31.511,-32.299 -56.26,-47.668c-33.44,-20.765 -175.102,-29.199 -194.813,-29.5c-67.07,-1.024 -77.731,-9.834 -85.439,3.638c-29.479,51.526 -69.565,18.233 -117.895,66.436c-80.949,80.734 -84.912,76.067 -91.919,83.077c-53.115,53.133 -58.05,121.181 -55.811,129.025c21.593,75.64 -18.449,127.286 85.293,202.849c25.335,18.453 -62.24,22.269 -84.378,18.762c-19.908,-3.154 -22.97,-13.229 -24.443,-14.11c-14.15,-8.462 -8.638,-49.47 -37.864,-45.361c-7.576,1.065 -8.972,-2.869 -17.751,-99.927c-5.319,-58.804 -6.559,-58.323 -13.056,-116.697c-7.427,-66.72 -37.956,-82.855 -16.823,-129.841c0.366,-0.813 17.849,-39.685 -4.995,-9.956c-22.15,28.826 -151.351,89.191 -179.359,244.113c-16.261,89.94 -35.691,124.421 3.7,169.855c46.045,53.109 -95.457,26.435 -100.279,24.484c-42.214,-17.08 -1.778,-78.386 -21.785,-84.506c-23.363,-7.147 -5.344,-19.168 6.745,-44.316c50.285,-104.602 49.917,-190.389 49.843,-207.458Z"
       style="fill:#f2ebd7;fill-opacity:1;"
       id="path2" /></g></svg>
