<?xml version="1.0" encoding="UTF-8" standalone="no"?>
<svg
   width="512"
   height="512"
   viewBox="0 0 512 512"
   version="1.1"
   xml:space="preserve"
   style="clip-rule:evenodd;fill-rule:evenodd;stroke-linejoin:round;stroke-miterlimit:2"
   id="svg2"
   xmlns="http://www.w3.org/2000/svg"
   xmlns:svg="http://www.w3.org/2000/svg"><defs
     id="defs2" /><path
     d="m 249.85354,486.04712 c -12.06091,-0.19408 -11.94657,-1.15167 -21.6303,-1.37795 -2.7061,-0.0632 -16.84434,24.09691 -19.8196,27.09281 -2.21064,2.22614 -54.47457,-14.50534 -60.90498,-19.41091 -0.78671,-0.60013 0.44207,-31.62885 0.57628,-32.67395 0.0423,-0.32898 0.37192,-0.82 -6.48602,-4.74443 -8.99771,-5.14885 -12.63526,-8.08885 -13.61386,-8.6936 -5.93866,-3.66968 -22.40514,-17.30657 -25.24768,-20.06039 -2.71307,-2.62831 -3.151433,-1.24797 -6.723436,-0.0452 -24.060418,8.10197 -23.859922,8.62027 -25.961424,9.29001 -2.357756,0.75144 -32.601521,-39.07687 -37.760884,-51.52109 -0.238015,-0.5742 -0.665404,-1.60483 3.975517,-6.66991 0.663476,-0.724 4.80019,-5.23902 7.5754,-9.66565 4.061083,-6.47776 8.755094,-9.17568 7.393144,-12.13029 -1.865859,-4.04801 -13.588502,-29.48113 -17.339054,-52.97359 -0.588587,-3.68726 -31.7009203,-9.02154 -31.9485744,-11.7217 -2.9601347,-32.27654 -2.18187777,-44.02449 0.004,-69.62546 C 2.1743,218.39554 33.339872,213.11686 33.944623,209.309 36.74,191.71012 46.712604,166.83792 48.146922,163.26066 c 2.914163,-7.26795 4.624459,-7.87017 1.375741,-11.5701 -6.718695,-7.65179 -5.609145,-8.45212 -12.360168,-16.1467 -4.257427,-4.8525 -6.353145,-5.2116 -3.203488,-10.79735 13.902,-24.65367 26.197807,-37.411822 35.045438,-48.10349 1.000108,-1.208468 30.683462,11.659247 32.477255,10.250138 6.34336,-4.983085 5.87326,-5.494079 6.4442,-5.896255 4.83474,-3.405086 15.85357,-14.000161 37.99756,-26.543362 3.30225,-1.870465 1.83635,-2.73981 1.80417,-6.592836 -0.22155,-26.593895 -1.69725,-27.452359 0.66288,-28.822413 11.31795,-6.570028 36.41258,-13.7451102 39.66486,-14.6749761 19.31213,-5.5218051 20.08238,-4.53574188 21.13854,-3.1840228 4.42871,5.668783 3.59499,6.2039254 8.02785,11.8060769 3.65995,4.625329 9.02455,14.861158 11.03707,14.554979 25.75945,-3.917272 56.69991,0.283223 57.17104,-0.38101 1.07263,-1.512261 9.83914,-13.870772 12.99606,-19.1914886 0.38394,-0.6472391 3.78036,-6.3716232 5.36312,-7.72408763 2.87561,-2.45703407 54.14862,14.31751923 60.79169,19.25230723 1.71563,1.274504 -1.47584,33.24904 0.3826,34.289511 25.34392,14.189026 32.24146,21.518688 45.64059,33.081938 1.72883,1.49184 26.43449,-9.168227 31.46468,-10.221071 3.40473,-0.712529 33.3829,40.331852 38.0382,51.411832 0.28666,0.68212 0.3439,0.81852 -4.94952,7.80458 -9.03389,11.92265 -9.32856,11.67282 -10.01828,12.77411 -3.10873,4.96445 -5.34162,5.02437 -3.71452,8.41634 11.92878,24.86817 16.99546,52.59317 17.34721,53.3847 0.40085,0.90229 18.22557,5.8906 30.59597,9.46964 3.74195,1.08266 3.13839,69.2446 0.40737,71.82312 -0.0119,0.0113 -19.69548,5.93307 -21.40829,6.44839 -7.45469,2.24268 -9.08906,1.01945 -10.33045,6.22614 -0.95932,4.0231 -7.7013,32.29785 -16.00765,49.14634 -2.1365,4.33361 -0.53149,4.38176 0.77173,6.29352 4.88947,7.17284 5.66669,6.51681 10.50365,13.66416 5.91657,8.74265 6.44984,8.36194 6.79374,9.21161 1.15656,2.85653 -23.375,38.48986 -36.41985,51.8866 -1.88706,1.93799 -20.41486,-6.52486 -31.25633,-9.91593 -2.57708,-0.80614 -16.51972,16.70792 -46.25305,32.761 -3.81328,2.05888 -0.60297,16.44721 -1.1527,33.9094 -0.0491,1.55787 -5.39456,3.34829 -5.86421,3.5297 -26.38007,10.19454 -26.00384,11.38959 -53.66651,17.08848 -2.65079,0.54618 -8.36063,-10.63278 -11.27035,-14.34599 -7.64168,-9.75166 -5.92027,-13.66014 -14.1194,-12.80242 -11.06243,1.15719 -11.02876,1.14675 -30.24228,1.21487 l 214.7178,-240.68261 c -0.73273,-6.25848 -0.39121,-6.20899 -1.06254,-12.40025 -3.94364,-36.36804 -11.52215,-57.36455 -28.52606,-87.4646 C 416.70942,113.15273 383.66079,86.405448 376.98717,82.273672 373.49822,80.113575 364.66897,73.761628 357.46342,70.028153 347.23219,64.726814 347.19423,64.969194 336.85919,59.918284 331.47961,57.28908 286.40329,38.386628 233.8051,44.897924 187.31552,50.653016 155.19403,64.285285 115.26981,98.307374 95.710021,114.97549 78.040415,143.92789 75.373165,148.29802 c -30.577134,50.10156 -46.300504,142.62082 4.94552,223.33401 12.204012,19.2216 20.032405,26.20529 20.396615,26.72254 6.43857,9.14527 33.21043,32.70808 54.74819,44.23675 33.19262,17.76733 58.22794,21.35889 66.61585,23.01068 21.63311,4.25997 56.22358,2.10002 61.19253,1.04941 3.1022,-0.65588 39.28996,-4.9798 72.73736,-24.00225 7.29438,-4.14847 50.5087,-28.72552 76.48051,-71.96518 31.91906,-53.14083 32.59054,-89.55422 32.08115,-125.32007 l -214.7178,240.68262 z"
     style="fill:#ffc64b;fill-opacity:0.95;stroke-width:0.14868"
     id="path1" /><path
     d="m 116.07669,309.96022 c -2.1543,-17.25036 2.58346,-16.39935 5.74379,-19.39526 14.42549,-13.6749 8.05425,-25.42657 6.10787,-35.22549 -0.60209,-3.03138 -4.60904,-23.2052 6.86209,-38.0203 2.33789,-3.0193 -4.4333,-5.95976 -18.18701,-23.06493 -8.79632,-10.93972 -4.06271,-26.92721 -2.02557,-30.23346 3.76434,-6.10972 -4.43227,2.23567 -12.88573,7.07729 -16.408053,9.39734 -13.153699,-4.66632 -12.916277,-8.92778 0.887996,-15.93801 1.885137,3.93039 1.904119,4.30692 0.397878,7.92771 7.186124,1.6497 8.253261,0.99874 5.000097,-3.05017 19.136107,-17.88091 22.393277,-17.12277 12.18621,2.83655 -6.18958,21.36515 -0.13465,36.70227 2.84016,7.19401 19.3406,16.29949 22.93277,17.49066 4.32016,1.43251 2.80576,-6.31438 20.45386,-6.55885 29.09077,-0.40307 52.58262,-5.82768 58.78747,-8.97146 19.35662,-9.80786 20.94546,-7.23322 28.83332,-10.99904 33.1953,-15.84811 47.18984,-6.86801 65.55584,-0.18529 35.04766,12.75264 42.68357,27.62051 50.25719,35.74036 8.77259,9.40524 8.71238,12.42365 11.4735,9.9146 6.91148,-6.28085 13.54891,-6.76039 22.40915,-8.2646 14.2714,-2.4229 21.67211,-4.44958 21.92377,-3.8885 2.83215,6.31319 -26.88635,14.19186 -28.51034,17.36887 -0.88043,1.7223 11.71241,2.63413 12.75241,2.7094 6.49788,0.47045 12.67233,-2.64962 12.99903,-0.96623 0.92003,4.73951 -14.22618,7.13289 -22.88399,8.89022 -0.8702,0.17664 -7.17559,0.72013 -5.48606,2.8519 3.15856,3.9851 5.08299,14.96953 1.17836,15.82472 -8.10897,1.7758 -10.73469,8.20109 -18.46224,17.88553 -9.18842,11.51525 -4.65724,24.9588 -22.92759,20.24061 -1.70674,-0.44079 -1.95513,0.85086 -3.10991,0.9631 -6.87055,0.66781 -5.83752,-5.07058 -6.95671,-6.27786 -5.96194,-6.4308 -4.58783,-7.23724 -5.1438,-13.18686 -0.33411,-3.57517 -6.56624,-2.13595 -7.00045,-1.72871 -0.73777,0.69196 -1.36848,1.49632 -2.12805,2.16398 -1.37114,1.20548 -12.00589,10.55497 -21.4467,7.69189 -5.16811,-1.56727 4.28768,12.72506 5.15165,16.08602 1.09754,4.26936 -3.32227,14.52055 -1.59596,22.45258 1.57001,7.21458 -1.5184,6.74861 -14.59217,19.90267 -0.8484,0.85355 -3.36528,5.04346 -3.94452,-0.68048 -0.70856,-7.00186 -1.99962,-7.80786 2.95524,-12.74607 0.35621,-0.35493 2.53912,-2.53068 3.52262,-5.21339 3.74966,-10.22823 2.29933,-13.92832 1.85681,-15.05778 -0.0583,-0.14877 -7.47975,-8.86488 -9.58392,-10.21541 -4.53889,-2.91317 -5.56658,-8.30901 -10.38546,-5.28837 -0.95517,0.5988 0.19931,15.47009 0.30342,16.81108 0.27049,3.48439 1.33837,3.38422 0.63441,6.88053 -0.33456,1.66147 -2.03418,10.10137 3.09404,20.95954 2.33388,4.9415 1.39784,5.54178 5.36579,9.35754 5.26036,5.05866 8.59879,6.61237 3.76835,9.06239 -5.19214,2.63353 -15.60681,-2.72863 -15.61526,-2.75233 -0.27361,-0.77886 -3.07032,-8.74279 -4.23074,-9.40852 -1.8181,-1.04315 -1.85992,-1.40344 -2.79389,-15.44161 -0.20939,-3.14646 -0.48537,-3.02781 -12.56378,-37.34132 -1.79734,-5.10621 -4.67295,-4.81464 -8.34313,-7.10561 -4.95901,-3.09533 -25.96691,-4.35255 -28.88997,-4.39741 -9.9462,-0.15265 -11.52719,-1.46591 -12.67025,0.54229 -4.37162,7.68071 -10.31621,2.7179 -17.48335,9.90327 -12.0044,12.03459 -12.5921,11.33891 -13.63121,12.38385 -7.87674,7.92026 -8.60858,18.06381 -8.27654,19.23308 3.20215,11.27526 -2.73591,18.97385 12.6486,30.23763 3.75708,2.75069 -9.22994,3.31952 -12.51291,2.79675 -2.95228,-0.47015 -3.40636,-1.97197 -3.6248,-2.1033 -2.09839,-1.26139 -1.28098,-7.37423 -5.61508,-6.76172 -1.12349,0.15875 -1.33051,-0.42767 -2.6324,-14.8956 -0.78878,-8.7656 -0.97267,-8.6939 -1.93615,-17.39541 -1.10139,-9.94559 -5.62872,-12.35075 -2.49478,-19.35471 0.0543,-0.12119 2.64693,-5.91563 -0.74074,-1.48409 -3.28475,4.29694 -22.44473,13.29523 -26.5982,36.38864 -2.41144,13.40689 -5.29283,18.54679 0.54869,25.31939 6.82829,7.91668 -14.15588,3.94053 -14.87096,3.6497 -6.26017,-2.54602 -0.26367,-11.68458 -3.23063,-12.59686 -3.46464,-1.06537 -0.79249,-2.85727 1.00026,-6.60595 7.45705,-15.59247 7.40248,-28.38029 7.39151,-30.92468 z"
     style="fill:#ffffff;fill-opacity:1;stroke-width:0.14868"
     id="path2" /></svg>
